<svg width="435" height="347" viewBox="0 0 435 347" fill="none" xmlns="http://www.w3.org/2000/svg">
<g clip-path="url(#clip0_10_123)">
<path d="M184.449 332.63C186.041 332.73 186.921 330.752 185.716 329.599L185.596 329.123C185.612 329.085 185.628 329.046 185.644 329.008C187.254 325.169 192.711 325.196 194.307 329.041C195.724 332.453 197.528 335.871 197.972 339.48C198.171 341.072 198.082 342.695 197.728 344.258C201.048 337.006 202.795 329.087 202.795 321.123C202.795 319.122 202.686 317.121 202.462 315.125C202.278 313.492 202.024 311.87 201.695 310.262C199.918 301.571 196.071 293.294 190.521 286.38C187.853 284.922 185.628 282.642 184.284 279.909C183.801 278.924 183.423 277.864 183.244 276.784C183.547 276.823 184.389 272.199 184.16 271.916C184.583 271.274 185.34 270.954 185.802 270.328C188.101 267.212 191.267 267.756 192.92 271.99C196.451 273.773 196.485 276.728 194.319 279.571C192.94 281.38 192.751 283.827 191.541 285.763C191.666 285.922 191.795 286.076 191.92 286.236C194.201 289.163 196.175 292.308 197.839 295.613C197.369 291.94 198.063 287.515 199.246 284.663C200.594 281.413 203.119 278.676 205.342 275.866C208.013 272.491 213.491 273.964 213.961 278.242C213.966 278.284 213.97 278.325 213.975 278.366C213.644 278.553 213.321 278.751 213.005 278.96C211.202 280.152 211.825 282.947 213.961 283.277L214.009 283.284C213.89 284.474 213.686 285.653 213.387 286.813C216.24 297.845 210.081 301.864 201.287 302.044C201.093 302.144 200.904 302.243 200.71 302.338C201.601 304.846 202.312 307.42 202.84 310.028C203.313 312.332 203.641 314.662 203.826 317.001C204.055 319.953 204.035 322.92 203.786 325.866L203.801 325.762C204.433 322.516 206.195 319.485 208.753 317.385C212.565 314.254 217.949 313.101 222.061 310.584C224.04 309.373 226.576 310.938 226.231 313.233L226.214 313.343C225.602 313.592 225.005 313.881 224.427 314.204C224.097 314.39 223.773 314.588 223.457 314.797C221.654 315.99 222.277 318.785 224.414 319.114L224.462 319.122C224.497 319.127 224.527 319.132 224.562 319.137C223.511 321.63 222.048 323.945 220.216 325.941C218.433 335.572 210.771 336.485 202.576 333.681H202.571C201.675 337.583 200.366 341.396 198.684 345.029H184.797C184.747 344.875 184.702 344.716 184.657 344.561C185.942 344.641 187.236 344.566 188.5 344.333C187.47 343.068 186.439 341.794 185.409 340.53C185.384 340.505 185.364 340.48 185.344 340.455C184.822 339.808 184.294 339.166 183.771 338.519L183.771 338.518C183.738 336.532 183.977 334.552 184.448 332.631L184.449 332.63V332.63Z" fill="white"/>
<path d="M0 345.304C0 345.812 0.408461 346.221 0.917105 346.221H311.708C312.216 346.221 312.625 345.812 312.625 345.304C312.625 344.795 312.216 344.387 311.708 344.387H0.917105C0.408461 344.387 0 344.795 0 345.304Z" fill="white"/>
<path d="M419.799 346.016H260.623C252.242 346.016 245.423 339.197 245.423 330.816V15.2005C245.423 6.81909 252.242 0 260.623 0H419.799C428.181 0 435 6.81909 435 15.2005V330.816C435 339.197 428.181 346.016 419.799 346.016V346.016ZM260.623 1.54128C253.08 1.54128 246.964 7.65656 246.964 15.2001V330.816C246.964 338.36 253.08 344.475 260.624 344.475H419.799C427.343 344.475 433.459 338.36 433.459 330.816V116.139C433.459 52.8483 382.152 1.54128 318.861 1.54128H260.623V1.54128Z" fill="white"/>
<path d="M290.634 155.76C300.848 155.76 309.129 147.479 309.129 137.264C309.129 127.05 300.848 118.769 290.634 118.769C280.419 118.769 272.138 127.05 272.138 137.264C272.138 147.479 280.419 155.76 290.634 155.76Z" fill="white"/>
<path d="M389.789 155.76C400.004 155.76 408.284 147.479 408.284 137.264C408.284 127.05 400.004 118.769 389.789 118.769C379.574 118.769 371.294 127.05 371.294 137.264C371.294 147.479 379.574 155.76 389.789 155.76Z" fill="white"/>
<path d="M340.211 155.76C350.426 155.76 358.707 147.479 358.707 137.264C358.707 127.05 350.426 118.769 340.211 118.769C329.997 118.769 321.716 127.05 321.716 137.264C321.716 147.479 329.997 155.76 340.211 155.76Z" fill="white"/>
<path d="M290.634 208.934C300.848 208.934 309.129 200.653 309.129 190.439C309.129 180.224 300.848 171.943 290.634 171.943C280.419 171.943 272.138 180.224 272.138 190.439C272.138 200.653 280.419 208.934 290.634 208.934Z" fill="white"/>
<path d="M389.789 208.934C400.004 208.934 408.284 200.653 408.284 190.439C408.284 180.224 400.004 171.943 389.789 171.943C379.574 171.943 371.294 180.224 371.294 190.439C371.294 200.653 379.574 208.934 389.789 208.934Z" fill="white"/>
<path d="M340.211 208.934C350.426 208.934 358.707 200.653 358.707 190.439C358.707 180.224 350.426 171.943 340.211 171.943C329.997 171.943 321.716 180.224 321.716 190.439C321.716 200.653 329.997 208.934 340.211 208.934Z" fill="white"/>
<path d="M290.634 262.108C300.848 262.108 309.129 253.827 309.129 243.612C309.129 233.398 300.848 225.117 290.634 225.117C280.419 225.117 272.138 233.398 272.138 243.612C272.138 253.827 280.419 262.108 290.634 262.108Z" fill="white"/>
<path d="M389.411 315.191C399.626 315.191 407.906 306.91 407.906 296.695C407.906 286.481 399.626 278.2 389.411 278.2C379.196 278.2 370.916 286.481 370.916 296.695C370.916 306.91 379.196 315.191 389.411 315.191Z" fill="white"/>
<path d="M315.815 315.191C339.862 315.191 359.356 306.91 359.356 296.695C359.356 286.481 339.862 278.2 315.815 278.2C291.768 278.2 272.274 286.481 272.274 296.695C272.274 306.91 291.768 315.191 315.815 315.191Z" fill="white"/>
<path d="M389.789 262.108C400.004 262.108 408.284 253.827 408.284 243.612C408.284 233.398 400.004 225.117 389.789 225.117C379.574 225.117 371.294 233.398 371.294 243.612C371.294 253.827 379.574 262.108 389.789 262.108Z" fill="white"/>
<path d="M340.211 262.108C350.426 262.108 358.707 253.827 358.707 243.612C358.707 233.398 350.426 225.117 340.211 225.117C329.997 225.117 321.716 233.398 321.716 243.612C321.716 253.827 329.997 262.108 340.211 262.108Z" fill="#7C3AED"/>
<path d="M343.846 21.5779H166.959C161.714 21.5779 157.449 25.8428 157.449 31.0878V96.0674C157.449 101.312 161.714 105.577 166.959 105.577H343.846C349.091 105.577 353.356 101.312 353.356 96.0674V31.0878C353.356 25.8428 349.091 21.5779 343.846 21.5779Z" fill="white"/>
<path d="M343.846 21.5779H166.959C161.714 21.5779 157.449 25.8428 157.449 31.0878V96.0674C157.449 101.312 161.714 105.577 166.959 105.577H343.846C349.091 105.577 353.356 101.312 353.356 96.0674V31.0878C353.356 25.8428 349.091 21.5779 343.846 21.5779ZM352.356 96.0674C352.356 100.762 348.541 104.577 343.846 104.577H166.959C162.264 104.577 158.449 100.762 158.449 96.0674V31.0878C158.449 26.3928 162.264 22.5778 166.959 22.5778H343.846C348.541 22.5778 352.356 26.3928 352.356 31.0878V96.0674Z" fill="#3F3D56"/>
<path d="M334.008 60.8804H176.797C175.308 60.8804 174.1 62.088 174.1 63.5776C174.1 65.0672 175.308 66.2748 176.797 66.2748H334.008C335.497 66.2748 336.705 65.0672 336.705 63.5776C336.705 62.088 335.497 60.8804 334.008 60.8804Z" fill="#7C3AED"/>
<path d="M52.3665 139.039L50.791 148.422L64.7631 182.41L72.2596 178.556L64.9632 146.75L63.9145 134.612L52.3665 139.039Z" fill="#A0616A"/>
<path d="M67.79 86.2564C67.79 86.2564 60.4746 82.7127 54.7982 94.6863C49.1217 106.66 49.8246 132.921 49.8246 132.921C49.8246 132.921 47.7577 134.889 49.0698 136.267C50.3819 137.645 51.6051 139.832 50.2666 142.353C49.5612 143.681 47.9285 146.28 50.6021 147.019C53.2757 147.757 65.7821 144.269 65.7821 144.269C65.7821 144.269 70.4586 142.174 67.8015 140.763C65.1443 139.352 68.8866 130.818 68.8866 130.818L71.9787 106.164L67.79 86.2564V86.2564Z" fill="#7C3AED"/>
<path d="M73.534 195.395C76.4703 194.494 77.6195 189.754 76.1009 184.808C74.5823 179.863 70.9709 176.585 68.0347 177.487C65.0984 178.388 63.9491 183.128 65.4677 188.074C66.9863 193.019 70.5977 196.297 73.534 195.395Z" fill="#A0616A"/>
<path d="M142.782 341.061L149.784 339.181L145.868 311.278L135.533 314.052L142.782 341.061Z" fill="#A0616A"/>
<path d="M166.731 334.465C167.047 334.773 167.48 335.928 167.595 336.355C167.947 337.667 167.168 339.017 165.856 339.369L144.17 345.188C143.275 345.428 142.354 344.897 142.114 344.002L141.872 343.099C141.872 343.099 140.071 340.673 141.382 336.736C141.382 336.736 144.83 338.618 147.831 333.416L148.452 330.9L158.926 334.954L163.94 334.249C165.037 334.095 165.938 333.691 166.73 334.465H166.731Z" fill="#2F2E41"/>
<path d="M74.1441 340.9L81.3941 340.899L84.8431 312.934L74.1426 312.935L74.1441 340.9Z" fill="#A0616A"/>
<path d="M98.9838 340.736C99.2095 341.116 99.3286 342.343 99.3286 342.785C99.3286 344.144 98.2269 345.246 96.8679 345.246H74.4152C73.4881 345.246 72.7365 344.494 72.7365 343.567V342.632C72.7365 342.632 71.6258 339.823 73.9126 336.36C73.9126 336.36 76.7548 339.071 81.0017 334.824L82.254 332.556L91.3195 339.186L96.3443 339.804C97.4436 339.939 98.4183 339.783 98.9838 340.736V340.736Z" fill="#2F2E41"/>
<path d="M122.395 174.322L141.459 256.497L150.663 322.894L136.2 324.866L96.0989 211.794L86.8953 324.866L70.4603 326.181C70.4603 326.181 57.3124 192.072 63.2289 175.637L122.395 174.322Z" fill="#2F2E41"/>
<path d="M145.087 77.1521L151.665 70.2788L159.219 34.3157L150.853 33.2883L139.005 63.6935L133.048 74.3213L145.087 77.1521Z" fill="#A0616A"/>
<path d="M102.657 112.132C102.657 112.132 108.813 123.483 120.239 116.772C131.665 110.062 143.75 83.6411 143.75 83.6411C143.75 83.6411 146.163 76.9249 148.687 75.5927C150.017 74.8906 153.44 74.1335 151.644 72.0197C149.848 69.9059 136.933 65.2848 136.933 65.2848C136.933 65.2848 131.888 64.3881 133.292 67.0488C134.696 69.7095 130.084 68.0613 130.55 70.8772C131.016 73.693 126.803 74.6634 126.803 74.6634L102.657 112.132H102.657Z" fill="#7C3AED"/>
<path d="M161.821 29.2356C163.345 24.2921 162.202 19.5509 159.266 18.6457C156.331 17.7405 152.716 21.0143 151.192 25.9577C149.667 30.9012 150.811 35.6425 153.746 36.5476C156.681 37.4528 160.296 34.1791 161.821 29.2356Z" fill="#A0616A"/>
<path d="M103.474 72.8048H85.4747L84.7464 78.4799C84.7464 78.4799 62.0462 84.7224 62.6137 88.1274C63.1812 91.5325 66.5862 148.283 66.5862 148.283L63.7487 176.658C63.7487 176.658 114.824 198.223 122.769 172.686L118.797 143.175C118.797 143.175 128.444 92.6675 126.174 90.3975C123.904 88.1274 105.177 79.0474 105.177 79.0474L103.474 72.8048L103.474 72.8048Z" fill="#7C3AED"/>
<path d="M93.0189 72.8755C101.941 72.8755 109.175 65.6424 109.175 56.7199C109.175 47.7974 101.941 40.5642 93.0189 40.5642C84.0964 40.5642 76.8632 47.7974 76.8632 56.7199C76.8632 65.6424 84.0964 72.8755 93.0189 72.8755Z" fill="#A0616A"/>
<path d="M104.984 50.0743C107.048 49.8998 109.112 49.7253 111.176 49.5508C110.467 49.2254 109.728 48.8771 109.255 48.2558C108.782 47.6347 108.684 46.6532 109.255 46.121C109.923 45.4991 111.028 45.8286 111.757 46.3764C111.356 44.2796 110.104 42.3583 108.348 41.1437C106.204 39.66 100.898 41.4292 98.3121 41.0886C95.3288 40.6955 94.9564 38.1521 91.9731 37.759C90.8487 37.6109 89.5832 37.4992 88.699 38.2096C87.7182 38.9974 87.6082 40.4869 86.7429 41.4C85.5075 42.7038 83.3901 42.3191 81.632 42.6859C79.1419 43.2056 77.2647 45.389 76.3977 47.7806C75.5307 50.1721 75.4988 52.7732 75.4767 55.3171C75.452 58.1678 75.443 61.4681 77.5049 63.4371C78.761 64.6366 82.1828 68.7523 82.5527 70.4494C82.8154 71.6547 93.5217 73.1227 95.8422 73.0559L103.751 70.4494C104.528 67.0268 103.243 60.2559 101.395 57.272C102.003 58.0758 104.818 60.4957 105.248 59.5839C105.678 58.6721 105.483 55.8142 106.019 54.9601C106.695 53.8821 103.716 50.1815 104.984 50.0743V50.0743Z" fill="#2F2E41"/>
</g>
<defs>
<clipPath id="clip0_10_123">
<rect width="435" height="346.221" fill="white"/>
</clipPath>
</defs>
</svg>
