<svg width="363" height="439" viewBox="0 0 363 439" fill="none" xmlns="http://www.w3.org/2000/svg">
<g clip-path="url(#clip0_31_240)">
<path d="M336.479 37.094H50.5195C40.0295 37.094 31.4995 45.624 31.4995 56.114V252.074C31.4995 262.564 40.0295 271.094 50.5195 271.094H336.479C346.969 271.094 355.5 262.564 355.5 252.074V56.1139C355.5 45.624 346.969 37.094 336.479 37.094V37.094Z" fill="white"/>
<path d="M305.455 52.188H19.4954C9.00537 52.188 0.475342 60.718 0.475342 71.2079V267.168C0.475342 277.658 9.00537 286.188 19.4954 286.188H305.455C315.945 286.188 324.475 277.658 324.475 267.168V71.2079C324.475 60.718 315.945 52.188 305.455 52.188ZM322.475 209.492C322.475 250.745 289.033 284.188 247.779 284.188H19.4954C10.0955 284.188 2.47534 276.568 2.47534 267.168V71.2079C2.47534 61.8081 10.0954 54.188 19.4953 54.188H305.455C314.855 54.188 322.475 61.8081 322.475 71.208V209.492Z" fill="#3F3D56"/>
<path d="M41.3215 243.721L39.6292 242.655C40.7293 240.907 41.8645 239.212 43.0022 237.618L44.6301 238.78C43.5144 240.342 42.4016 242.004 41.3215 243.721H41.3215Z" fill="#CCCCCC"/>
<path d="M52.3494 229.468L50.9177 228.071C53.9695 224.944 57.1814 222.259 60.4636 220.091L61.5662 221.76C58.4026 223.849 55.3015 226.442 52.3494 229.468V229.468ZM102.245 216.844C99.8567 216.844 97.6809 216.538 96.052 216.271L96.3752 214.298C98.0256 214.568 100.013 214.844 102.245 214.844C104.216 214.844 106.153 214.627 108.166 214.182L108.598 216.135C106.441 216.612 104.363 216.844 102.245 216.844V216.844ZM72.3186 216.579L71.717 214.672C73.8655 213.994 76.0911 213.486 78.3318 213.162C80.2561 212.883 82.096 212.748 83.9558 212.748H84.0789V214.748H83.9558C82.1926 214.748 80.447 214.876 78.6184 215.141C76.4841 215.45 74.364 215.934 72.3186 216.579H72.3186ZM119.99 210.799L118.712 209.261C121.471 206.969 123.449 204.197 125.544 201.262L126.38 200.094L128.003 201.263L127.172 202.423C125 205.467 122.948 208.342 119.99 210.799V210.799ZM136.029 192.461L134.799 190.884C137.494 188.781 140.54 187.076 144.11 185.673C144.718 185.434 145.299 185.221 145.856 185.031L146.502 186.923C145.971 187.104 145.42 187.307 144.842 187.535C141.453 188.866 138.571 190.478 136.029 192.461V192.461ZM160.174 185.515C159.501 185.515 158.863 185.508 158.25 185.501L158.273 183.501C158.9 183.509 159.554 183.51 160.247 183.515C162.6 183.515 165.878 183.448 170.374 182.927L170.605 184.914C165.96 185.452 162.631 185.508 160.174 185.515V185.515ZM182.771 182.896L182.374 180.936C185.967 180.209 190.146 179.344 194.282 178.277L194.782 180.213C190.598 181.293 186.388 182.164 182.771 182.896ZM206.564 176.422L205.816 174.567C209.826 172.95 213.308 171.127 216.461 168.992L217.582 170.648C214.311 172.863 210.706 174.752 206.564 176.422V176.422ZM226.771 162.131L225.148 160.962C225.706 160.188 226.189 159.432 226.655 158.702C228.032 156.545 229.456 154.315 232.847 151.578L233.085 151.388L234.324 152.958L234.104 153.134C230.966 155.667 229.691 157.664 228.341 159.778C227.86 160.532 227.362 161.311 226.771 162.131V162.131ZM244.713 147.131L243.984 145.269C247.548 143.871 251.574 142.747 255.949 141.926L256.319 143.892C252.066 144.689 248.161 145.779 244.713 147.131V147.131Z" fill="#CCCCCC"/>
<path d="M268.543 142.423L268.418 140.427C270.362 140.305 272.393 140.225 274.457 140.188L274.493 142.188C272.459 142.224 270.457 142.303 268.543 142.423V142.423Z" fill="#CCCCCC"/>
<path d="M63.6235 73.8592H35.5634C34.1534 73.8592 33.0034 75.0092 33.0034 76.4192C33.0034 77.8392 34.1534 78.9892 35.5634 78.9892H63.6235C65.0334 78.9892 66.1835 77.8392 66.1835 76.4192C66.1835 75.0092 65.0335 73.8592 63.6235 73.8592V73.8592Z" fill="#E6E6E6"/>
<path d="M110.623 73.8592H82.5634C81.1534 73.8592 80.0034 75.0092 80.0034 76.4192C80.0034 77.8392 81.1534 78.9892 82.5634 78.9892H110.623C112.033 78.9892 113.183 77.8392 113.183 76.4192C113.183 75.0092 112.033 73.8592 110.623 73.8592Z" fill="#E6E6E6"/>
<path d="M157.623 73.8592H129.563C128.153 73.8592 127.003 75.0092 127.003 76.4192C127.003 77.8392 128.153 78.9892 129.563 78.9892H157.623C159.033 78.9892 160.183 77.8392 160.183 76.4192C160.183 75.0092 159.033 73.8592 157.623 73.8592Z" fill="#E6E6E6"/>
<path d="M287.975 242.188H32.9753V244.188H287.975V242.188Z" fill="#E6E6E6"/>
<path d="M274.505 96.188C256.355 96.658 242.815 101.998 234.235 112.038C231.065 115.758 229.775 118.688 228.415 121.788C227.065 124.848 225.685 127.998 222.475 132.108V128.708C224.465 125.788 225.535 123.348 226.585 120.978C228.005 117.738 229.355 114.678 232.715 110.748C241.675 100.248 255.715 94.678 274.445 94.188L274.505 96.188V96.188Z" fill="#CCCCCC"/>
<path d="M228.415 121.788C227.065 124.848 225.685 127.998 222.475 132.108C222.095 132.598 221.685 133.108 221.245 133.638C209.665 147.408 194.195 151.928 181.755 155.568C180.975 155.798 180.215 156.008 179.475 156.208C168.415 159.208 162.355 159.098 157.845 159.028C153.315 158.948 150.325 158.898 144.975 161.958C135.165 167.548 131.145 175.728 127.255 183.638C123.245 191.778 119.465 199.468 109.825 203.078C103.135 205.578 98.4353 204.338 93.4653 203.038C89.1953 201.908 81.4995 174.094 74.6853 170.038C60.6153 172.988 52.0653 218.968 41.3953 243.588L39.5553 242.788C50.5053 217.548 59.5253 171.178 74.2653 168.078C80.8353 166.698 89.4853 199.918 93.9753 201.098C98.6353 202.328 103.025 203.478 109.125 201.198C118.025 197.878 121.465 190.868 125.455 182.758C129.295 174.958 133.645 166.118 143.975 160.218C149.805 156.888 153.195 156.948 157.875 157.028C162.335 157.108 168.355 157.208 179.475 154.138C180.035 153.978 180.605 153.818 181.195 153.648C193.375 150.088 208.525 145.658 219.705 132.358C220.805 131.048 221.715 129.838 222.475 128.708C224.465 125.788 225.535 123.348 226.585 120.978C228.005 117.738 229.775 118.688 228.415 121.788V121.788Z" fill="#7C3AED"/>
<path d="M121.776 350.568C120.984 347.812 119.629 345.461 118.015 343.783L112.151 317.054L99.3699 320.185L106.694 346.962C106.212 349.228 106.309 351.933 107.1 354.689C108.909 360.986 113.66 365.168 117.712 364.031C121.765 362.893 123.584 356.865 121.776 350.568L121.776 350.568Z" fill="#FFB6B6"/>
<path d="M120.008 175.227C120.008 175.227 99.8233 174.814 94.691 189.513C90.0195 202.892 84.4816 239.648 87.4753 241.772L100.218 332.257L118.389 329.761L113.725 221.192L120.008 175.227V175.227Z" fill="#7C3AED"/>
<path d="M213.475 343.188L209.895 438.188H162.395L160.475 395.618L152.035 438.188H101.125L107.475 365.008L114.035 349.618L118.475 339.188L213.475 343.188Z" fill="#2F2E41"/>
<path d="M175.475 157.188L142.475 155.188L131.475 169.188L107.475 178.188L118.475 285.188L113.475 349.188C113.475 349.188 183.475 405.188 213.475 343.188L205.475 268.188L207.475 181.188L184.475 171.188L175.475 157.188Z" fill="#7C3AED"/>
<path d="M239.006 132.849C239.364 136.316 238.909 139.576 237.862 142.191L243.359 175.002L227.669 177.161L223.782 143.645C222.223 141.3 221.112 138.201 220.754 134.734C219.936 126.814 223.358 119.971 228.399 119.451C233.439 118.93 238.188 124.929 239.006 132.849V132.849H239.006Z" fill="#FFB6B6"/>
<path d="M211.677 184.945C206.268 175.7 192.852 174.828 186.843 183.695C185.2 186.119 185.657 188.843 185.265 192.116C183.6 206.013 210.23 247.076 228.656 251.804C231.073 252.425 232.451 255.033 234.891 255.557H234.891C242.121 257.111 248.852 251.373 248.462 243.989L243.457 149.281L222.43 156.453L223.775 205.623L211.677 184.945L211.677 184.945Z" fill="#7C3AED"/>
<path d="M162.4 152.6C178.454 152.6 191.468 139.586 191.468 123.532C191.468 107.479 178.454 94.4647 162.4 94.4647C146.346 94.4647 133.332 107.479 133.332 123.532C133.332 139.586 146.346 152.6 162.4 152.6Z" fill="#FFB6B6"/>
<path d="M189.475 102.188C189.225 102.248 193.302 98.2748 193.475 98.188C197.475 96.188 193.365 115.738 190.475 115.188C183.365 113.838 180.295 111.158 177.535 117.848C176.765 119.708 176.285 121.808 174.785 123.138C172.725 124.948 169.305 124.798 167.625 126.958C166.275 128.698 166.665 131.258 167.665 133.218C168.665 135.188 170.185 136.858 171.095 138.868C172.115 141.128 167.765 148.318 166.105 152.358V152.368L166.095 152.392C165.654 153.451 164.606 150.399 163.5 150.094C162.175 149.729 160.224 152.856 158.115 152.288C158.105 152.288 158.095 152.278 158.085 152.278C156.075 151.718 153.835 151.118 151.615 150.518H151.605C145.355 148.818 143.775 151.258 143.475 151.188L139.595 147.128C138.264 146.158 138.414 143.029 137.475 142.188C136.707 141.501 134.793 143.089 134.229 142.428C131.463 139.188 130.826 135.947 129.195 129.548C127.705 123.698 124.615 106.188 130.965 105.398C136.955 104.648 132.575 96.308 138.605 96.618C138.245 95.098 138.915 93.468 140.005 92.348C141.085 91.218 142.525 90.5179 143.975 89.918C151.125 86.998 149.935 84.488 157.475 86.188C158.225 85.138 169.115 85.838 170.475 86.188C170.575 86.208 167.105 87.038 172.475 86.188C172.275 87.418 175.675 87.958 175.475 89.188C176.225 88.178 184.285 93.978 184.475 95.188C184.725 96.698 182.445 95.928 183.965 96.158C184.865 96.298 186.405 98.128 186.255 99.038C186.905 98.158 187.555 97.288 188.215 96.408C188.335 96.418 188.445 96.438 188.565 96.4579C191.605 97.038 188.12 106.976 188.245 103.878C188.475 98.188 192.505 101.518 189.475 102.188V102.188Z" fill="#2F2E41"/>
<path d="M300.835 256.9C301.059 257.451 301.832 257.451 302.056 256.899C303.617 253.05 305.84 248.739 308.258 245.445C308.646 244.917 308.112 244.212 307.497 244.435L302.313 246.31V214.224H300.578V246.31L295.393 244.435C294.778 244.212 294.244 244.917 294.631 245.444C297.049 248.739 299.273 253.05 300.835 256.9V256.9Z" fill="#3F3D56"/>
<path d="M334.826 289.937C334.658 290.508 335.264 290.989 335.782 290.696C339.399 288.653 343.82 286.659 347.763 285.583C348.394 285.411 348.414 284.527 347.794 284.319L342.569 282.564L362.524 257.437L361.165 256.358L341.21 281.485L338.316 276.791C337.973 276.234 337.117 276.454 337.092 277.108C336.936 281.192 335.996 285.951 334.826 289.937V289.937Z" fill="#3F3D56"/>
<path d="M318.593 311.349H284.871C282.778 311.349 281.074 309.646 281.074 307.552C276.616 294.521 276.704 281.751 281.074 269.229C281.074 267.135 282.778 265.432 284.871 265.432H318.593C320.686 265.432 322.39 267.135 322.39 269.229V307.552C322.39 309.646 320.686 311.349 318.593 311.349Z" fill="#E6E6E6"/>
<path d="M292.096 266.563C286.634 266.563 282.206 270.992 282.206 276.454V306.739C282.206 308.66 283.763 310.218 285.684 310.218H304.332C313.68 310.218 321.258 302.64 321.258 293.292V270.042C321.258 268.121 319.701 266.563 317.78 266.563H292.096V266.563Z" fill="white"/>
<path d="M309.585 277.7H293.797C293.399 277.7 293.075 277.376 293.075 276.978C293.075 276.58 293.399 276.257 293.797 276.257H309.585C309.983 276.257 310.307 276.58 310.307 276.978C310.307 277.376 309.983 277.7 309.585 277.7Z" fill="#E6E6E6"/>
<path d="M309.585 293.093H293.797C293.399 293.093 293.075 292.769 293.075 292.371C293.075 291.973 293.399 291.649 293.797 291.649H309.585C309.983 291.649 310.307 291.973 310.307 292.371C310.307 292.769 309.983 293.093 309.585 293.093Z" fill="#E6E6E6"/>
<path d="M318.057 285.402H285.325C284.927 285.402 284.604 285.078 284.604 284.68C284.604 284.282 284.927 283.958 285.325 283.958H318.057C318.455 283.958 318.779 284.282 318.779 284.68C318.779 285.078 318.455 285.402 318.057 285.402Z" fill="#E6E6E6"/>
<path d="M318.443 299.351H304.785C304.387 299.351 304.064 299.028 304.064 298.63C304.064 298.232 304.387 297.908 304.785 297.908H318.443C318.841 297.908 319.165 298.232 319.165 298.63C319.165 299.028 318.841 299.351 318.443 299.351Z" fill="#E6E6E6"/>
<path d="M12.4633 24.7225C19.3466 24.7225 24.9266 19.26 24.9266 12.5218C24.9266 5.7835 19.3466 0.32107 12.4633 0.32107C5.58 0.32107 0 5.7835 0 12.5218C0 19.26 5.58 24.7225 12.4633 24.7225Z" fill="#7C3AED"/>
<path d="M112.376 8.34784H45.2912C42.9898 8.34784 41.1173 6.47535 41.1173 4.17392C41.1173 1.87249 42.9898 0 45.2912 0H112.376C114.678 0 116.55 1.87249 116.55 4.17392C116.55 6.47535 114.678 8.34784 112.376 8.34784Z" fill="white"/>
<path d="M164.73 22.475H45.2912C42.9898 22.475 41.1173 20.6025 41.1173 18.301C41.1173 15.9996 42.9898 14.1271 45.2912 14.1271H164.73C167.031 14.1271 168.903 15.9996 168.903 18.301C168.903 20.6025 167.031 22.475 164.73 22.475V22.475Z" fill="white"/>
</g>
<defs>
<clipPath id="clip0_31_240">
<rect width="362.524" height="438.188" fill="white"/>
</clipPath>
</defs>
</svg>
